<?xml version="1.0" encoding="UTF-8" standalone="no"?>
<svg xmlns="http://www.w3.org/2000/svg" role="img" aria-labelledby="uno-arch" width="500" height="300" viewBox="0 0 500 300">
  <title id="uno-arch">Arduino Uno architecture</title>
  <style>
    .box { fill: #BAC8FF; stroke: #000000; stroke-width: 1.5; }
    .arrow { stroke: #000000; stroke-width: 1.5; marker-end: url(#arrowhead); fill:none; }
    .arrow-bi { stroke: #000000; stroke-width: 1.5; marker-end: url(#arrowhead); marker-start: url(#arrowhead); fill:none; }
    .dash { stroke-dasharray: 4 2; }
    text { font-family: sans-serif; font-size: 14px; }
  </style>
  <defs>
    <marker id="arrowhead" markerWidth="10" markerHeight="7" refX="10" refY="3.5" orient="auto">
      <polygon points="0 0, 10 3.5, 0 7" fill="#000000" stroke-linejoin="round" />
    </marker>
  </defs>
  <rect x="40" y="120" width="120" height="60" class="box"/>
  <text x="100" y="150" text-anchor="middle">ATmega16U2</text>

  <rect x="220" y="80" width="160" height="140" class="box"/>
  <text x="300" y="110" text-anchor="middle">ATmega328P</text>

  <rect x="420" y="135" width="60" height="50" class="box"/>
  <text x="450" y="165" text-anchor="middle">I/O</text>

  <rect x="40" y="40" width="120" height="50" class="box"/>
  <text x="100" y="70" text-anchor="middle">USB</text>

  <line x1="100" y1="90" x2="100" y2="120" class="arrow-bi"/>
  <g>
    <line x1="160" y1="150" x2="220" y2="150" class="arrow-bi"/>
    <text x="190" y="150" text-anchor="middle" font-size="12" dominant-baseline="middle">USART</text>
  </g>
  <g>
    <line x1="380" y1="150" x2="420" y2="160" class="arrow"/>
    <text x="410" y="145" text-anchor="middle" font-size="12" dominant-baseline="middle">GPIO</text>
  </g>

  <text x="100" y="220" text-anchor="middle" font-size="12">ideal-diode MOSFET</text>
  <text x="300" y="180" text-anchor="middle" font-size="12">
    <tspan x="300" dy="0">32 KiB Flash</tspan>
    <tspan x="300" dy="15">2 KiB SRAM</tspan>
  </text>
  <text x="250" y="30" text-anchor="middle" font-size="12">16 MHz crystal</text>
  <line x1="250" y1="35" x2="300" y2="80" class="arrow dash"/>
  <line x1="250" y1="35" x2="100" y2="120" class="arrow dash"/>
</svg>
